<svg  version="1.1" baseProfile="full"
      width="100%" height="280"
      xmlns="http://www.w3.org/2000/svg"
      style="margin-top: 20px">

  <g fill="#DAA" text-anchor="middle" font-size="25" >
    <rect x="1%" y="1" width="30%" height="30" stroke="black" />
    <text x="16%" y="23" fill="black">JuMP</text>

    <rect x="35%" y="1" width="30%" height="30" stroke="black" />
    <text x="50%" y="23" fill="black">Convex.jl</text>
  </g>

  <g fill="#9D9" text-anchor="middle">
    <rect x="1%" y="50" width="64%" height="30" stroke="black" />
    <text x="33%" y="73" font-size="25" fill="black">MathProgBase.jl</text>
  </g>

  <g fill="#DAD" font-size="20" text-anchor="middle">
    <rect x="1%" y="100" width="20%" height="30" stroke="black" />
    <text x="11%" y="121" fill="black">Cbc.jl</text>

    <rect x="23%" y="100" width="20%" height="30" stroke="black" />
    <text x="33%" y="121" fill="black">Clp.jl</text>

    <rect x="45%" y="100" width="20%" height="30" stroke="black" />
    <text x="55%" y="121" fill="black">CPLEX.jl</text>


    <rect x="1%" y="140" width="20%" height="30" stroke="black" />
    <text x="11%" y="161" fill="black">ECOS.jl</text>

    <rect x="23%" y="140" width="20%" height="30" stroke="black" />
    <text x="33%" y="161" fill="black">GLPK.jl</text>

    <rect x="45%" y="140" width="20%" height="30" stroke="black" />
    <text x="55%" y="161" fill="black">Gurobi.jl</text>


    <rect x="1%" y="180" width="20%" height="30" stroke="black" />
    <text x="11%" y="201" fill="black">Ipopt.jl</text>

    <rect x="23%" y="180" width="20%" height="30" stroke="black" />
    <text x="33%" y="201" fill="black">KNITRO.jl</text>

    <rect x="45%" y="180" width="20%" height="30" stroke="black" />
    <text x="55%" y="201" fill="black">Mosek.jl</text>



    <rect x="1%" y="180" width="20%" height="30" stroke="black" />
    <text x="11%" y="201" fill="black">NLopt.jl</text>

    <rect x="23%" y="180" width="20%" height="30" stroke="black" />
    <text x="33%" y="201" fill="black">SCS.jl</text>

    <rect x="45%" y="180" width="20%" height="30" stroke="black" />
    <text x="55%" y="201" fill="black">Xpress.jl</text>


    <!--  2 boxes 
    <rect x="11%" y="220" width="20%" height="30" stroke="black" />
    <text x="21%" y="241" fill="black">NLopt.jl</text>

    <rect x="33%" y="220" width="20%" height="30" stroke="black" />
    <text x="43%" y="241" fill="black">SCS.jl</text> -->
  </g>

  <g fill="#EC9" font-size="20" text-anchor="middle">
    <rect x="69%" y="140" width="30%" height="30" stroke="black" />
    <text x="84%" y="161" fill="black">CoinOptServices.jl</text>

    <rect x="69%" y="180" width="30%" height="30" stroke="black" />
    <text x="84%" y="201" fill="black">AmplNLWriter.jl</text>
  </g>
</svg>
